<?xml version="1.0" encoding="utf-8"?>
<!-- Generator: Adobe Illustrator 18.0.0, SVG Export Plug-In . SVG Version: 6.00 Build 0)  -->
<!DOCTYPE svg PUBLIC "-//W3C//DTD SVG 1.1//EN" "http://www.w3.org/Graphics/SVG/1.1/DTD/svg11.dtd">
<svg version="1.1" id="Layer_1" xmlns="http://www.w3.org/2000/svg" xmlns:xlink="http://www.w3.org/1999/xlink" x="0px" y="0px"
	 viewBox="0 0 85.5 30" enable-background="new 0 0 85.5 30" xml:space="preserve">
<g>
	<g>
		<g>
			<path fill="#222222" d="M31.5,13.3c-0.8-0.7-1.8-1-2.9-0.9l-0.5,0.1l-0.6,0.1L27,12.7l-0.6,0.2L25.8,13l-0.1,0
				c-0.8,0.3-1.8,0.7-2.9,1.3L16.7,0L7.6,19.8L7,21.1l0.1,0l0.6,0.1l0.6,0l0.6,0l0.6,0l0.6-0.1l0.6-0.1l0.5-0.1l0.1,0l0.7-0.2
				l0.7-0.2l0.7-0.2l0.7-0.2l0.7-0.3l0.7-0.3l0.7-0.3l0.7-0.3l0.7-0.3l0.7-0.4c0.6-0.3,1.2-0.6,1.7-0.9c0.3-0.1,0.5-0.3,0.8-0.4
				l0.6-0.3l0.6-0.3l0.6-0.3l0.6-0.3l0.1-0.1l0.4-0.2l0.6-0.2l0.5-0.2l0.5-0.2l0.5-0.2l0.5-0.2l0.5-0.1l0.5-0.1l0.5-0.1l0.5-0.1
				l0.5,0l0.5,0l0.5,0l0.5,0.1l0.5,0.1l0.5,0.1l0.5,0.2l0.5,0.2l0.5,0.3l0.3,0.2C32.6,14.5,32.2,13.9,31.5,13.3z M17.3,17l-0.6,0.3
				L16,17.6l-0.6,0.3l-0.6,0.3l-0.6,0.3l-0.4,0.1c-0.3,0.1-0.5,0.2-0.6,0.3c-0.3,0.1-0.7,0.3-1,0.4l4.6-10.4l2.8,7.2
				C18.7,16.3,17.9,16.7,17.3,17z"/>
			<path fill="#222222" d="M24.1,18l-0.6-1.4c-0.9,0.4-2.1,0.9-3.4,1.6c-0.4,0.2-0.8,0.4-1.3,0.6c-1,0.5-1.9,1-2.7,1.3l-0.6,0.3
				l-0.7,0.3L14.3,21l-0.6,0.3L13,21.6l-0.4,0.1c-0.3,0.1-0.5,0.2-0.6,0.3c-0.4,0.2-0.8,0.3-1.2,0.4c-1.7,0.5-3.2,0.7-4.4,0.5h0
				c-1.2-0.2-2.3-0.6-3.2-1.4l0,0l0,0c0,0-0.1,0-0.1-0.1c0,0,0,0-0.1,0l-0.2-0.2l-0.4-0.4L2,20.5l-0.1-0.1c-0.7-0.7-1.7-3-1.9-3.1
				l0.3,1.3l0.2,0.8l0.3,0.7l0.3,0.6l0.3,0.6l0.4,0.5l0.4,0.5l0.4,0.4L3,23l0.4,0.3L4,23.6l0.5,0.2L5,24l0.5,0.2l0.3,0.1L3.1,30h4.3
				l2.6-5.9l0.3-0.1l0.7-0.2l0.7-0.2l0.7-0.2l0.7-0.2l0.7-0.3l0.7-0.3l0.7-0.3l0.7-0.3l0.7-0.3l0.7-0.4c0.9-0.4,1.7-0.9,2.5-1.3
				l0.6-0.3l0.4-0.2L24.8,30h4.3L24.1,18z"/>
		</g>
	</g>
	<g>
		<polygon fill="#222222" points="40,13.1 37,20.2 38.4,20.2 40.7,14.4 41.9,17.1 40.4,17.1 39.9,18.2 42.2,18.2 43.1,20.2 
			44.5,20.2 41.5,13.1 		"/>
		<path fill="#222222" d="M49.6,17.4c0,1.1-0.6,1.7-1.7,1.7c-1.2,0-1.7-0.6-1.7-1.7v-4.3h-1.3v4.3c0,1.9,1,2.8,3.1,2.8
			c2,0,3.1-0.9,3.1-2.8v-4.3h-1.3V17.4z"/>
		<path fill="#222222" d="M55.2,13.1h-3.1v7.1h3.1c2.2,0,3.3-1.2,3.3-3.7C58.6,14.2,57.4,13.1,55.2,13.1z M55,19h-1.6v-4.8H55
			c1.5,0,2.2,0.7,2.2,2.2C57.2,18.2,56.5,19,55,19z"/>
		<rect x="59.7" y="13.1" fill="#222222" width="1.3" height="7.1"/>
		<polygon fill="#222222" points="62.1,14.2 64.1,14.2 64.1,20.2 65.5,20.2 65.5,14.2 67.5,14.2 67.5,13.1 62.1,13.1 		"/>
		<rect x="68.6" y="13.1" fill="#222222" width="1.3" height="7.1"/>
		<path fill="#222222" d="M74.5,13c-2.4,0-3.6,1.2-3.6,3.6c0.1,2.4,1.3,3.6,3.6,3.6c2.3,0,3.5-1.2,3.5-3.6C78,14.2,76.8,13,74.5,13z
			 M74.5,19.1c-1.5,0-2.2-0.8-2.2-2.5c0-1.6,0.7-2.4,2.2-2.4c1.4,0,2.1,0.8,2.1,2.4C76.6,18.3,75.9,19.1,74.5,19.1z"/>
		<polygon fill="#222222" points="84.3,13.1 84.3,18.2 80.3,13.1 79,13.1 79,20.2 80.3,20.2 80.3,15 84.2,20.2 85.5,20.2 85.5,13.1 
					"/>
	</g>
</g>
</svg>
