<?xml version="1.0" encoding="utf-8"?>
<!-- Generator: Adobe Illustrator 18.0.0, SVG Export Plug-In . SVG Version: 6.00 Build 0)  -->
<!DOCTYPE svg PUBLIC "-//W3C//DTD SVG 1.1//EN" "http://www.w3.org/Graphics/SVG/1.1/DTD/svg11.dtd">
<svg version="1.1" id="Layer_1" xmlns="http://www.w3.org/2000/svg" xmlns:xlink="http://www.w3.org/1999/xlink" x="0px" y="0px"
	 viewBox="0 0 185.8 40" enable-background="new 0 0 185.8 40" xml:space="preserve">
<g>
	<g>
		<g>
			<path fill="#222222" d="M42,17.8c-1.1-0.9-2.4-1.3-3.9-1.2l-0.7,0.1l-0.7,0.1L36,16.9l-0.8,0.2l-0.8,0.2l-0.2,0.1
				c-1.1,0.4-2.4,1-3.9,1.7L22.3,0L10.2,26.4l-0.8,1.8l0.2,0l0.8,0.1l0.8,0l0.8,0l0.8,0l0.8-0.1l0.8-0.1l0.7-0.1l0.2,0l0.9-0.2
				l0.9-0.3l0.9-0.3l0.9-0.3l0.9-0.3l0.9-0.4l0.9-0.4l0.9-0.4l0.9-0.5l0.9-0.5c0.8-0.4,1.5-0.8,2.3-1.2c0.4-0.2,0.7-0.4,1.1-0.6
				l0.8-0.4l0.8-0.4l0.8-0.4l0.8-0.4l0.2-0.1l0.6-0.3l0.7-0.3l0.7-0.3l0.7-0.3l0.7-0.2l0.7-0.2l0.7-0.2l0.7-0.1l0.7-0.1l0.7-0.1
				l0.6,0l0.6,0l0.6,0l0.6,0.1l0.6,0.1l0.6,0.2l0.6,0.2l0.6,0.3l0.6,0.3l0.4,0.3C43.5,19.4,42.9,18.5,42,17.8z M23,22.7l-0.8,0.4
				l-0.9,0.4l-0.9,0.4l-0.9,0.4l-0.9,0.3l-0.5,0.2c-0.3,0.2-0.6,0.3-0.9,0.4c-0.5,0.2-0.9,0.3-1.3,0.5l6.1-13.8l3.8,9.5
				C24.9,21.8,23.9,22.3,23,22.7z"/>
			<path fill="#222222" d="M32.2,24.1l-0.8-1.9c-1.3,0.5-2.7,1.2-4.5,2.1c-0.5,0.3-1.1,0.5-1.7,0.8c-1.3,0.7-2.5,1.3-3.7,1.8
				l-0.8,0.4l-0.9,0.4L19,28l-0.9,0.4l-0.9,0.3l-0.5,0.2c-0.3,0.2-0.6,0.3-0.9,0.4c-0.5,0.2-1,0.4-1.5,0.6c-2.2,0.7-4.2,1-5.9,0.7h0
				c-1.6-0.2-3-0.8-4.3-1.8l0,0l-0.1,0c0,0-0.1-0.1-0.1-0.1c0,0,0,0-0.1-0.1l-0.3-0.3l-0.5-0.5l-0.5-0.5l-0.1-0.2
				c-1-0.9-2.3-4-2.5-4.2l0.4,1.7l0.3,1l0.4,0.9l0.4,0.9L2,28.2l0.5,0.7l0.5,0.6l0.5,0.6L4,30.6l0.6,0.4l0.6,0.4l0.7,0.3L6.6,32
				l0.7,0.2l0.4,0.1L4.2,40h5.8l3.4-7.8l0.3-0.1l0.9-0.2l0.9-0.2l0.9-0.3l0.9-0.3l0.9-0.3l0.9-0.4l0.9-0.4l0.9-0.4l0.9-0.5l0.9-0.5
				c1.1-0.6,2.3-1.2,3.4-1.8l0.8-0.4l0.5-0.3L33.1,40h5.8L32.2,24.1z"/>
		</g>
	</g>
	<g>
		<polygon fill="#222222" points="64.5,12.7 56.4,31.7 60,31.7 66.3,16.3 69.4,23.4 65.4,23.4 64.2,26.5 70.3,26.5 72.7,31.7 
			76.5,31.7 68.2,12.7 		"/>
		<path fill="#222222" d="M89.9,24.2c0,3-1.5,4.5-4.6,4.5c-3.1,0-4.6-1.5-4.6-4.5V12.7h-3.5v11.5c0,5.1,2.7,7.6,8.1,7.6
			c5.4,0,8.1-2.5,8.1-7.6V12.7h-3.5V24.2z"/>
		<path fill="#222222" d="M105,12.7h-8.2v18.9h8.2c5.9,0,8.9-3.3,8.9-10C113.9,15.7,110.9,12.7,105,12.7z M104.4,28.6h-4.2V15.8h4.2
			c3.9,0,5.9,2,5.9,5.9C110.3,26.3,108.4,28.6,104.4,28.6z"/>
		<rect x="116.8" y="12.7" fill="#222222" width="3.5" height="18.9"/>
		<polygon fill="#222222" points="123.3,15.8 128.7,15.8 128.7,31.7 132.3,31.7 132.3,15.8 137.7,15.8 137.7,12.7 123.3,12.7 		"/>
		<rect x="140.7" y="12.7" fill="#222222" width="3.5" height="18.9"/>
		<path fill="#222222" d="M156.3,12.6c-6.3,0-9.5,3.2-9.5,9.6c0.3,6.4,3.5,9.6,9.5,9.6c6.2,0,9.4-3.2,9.4-9.6
			C165.7,15.8,162.6,12.6,156.3,12.6z M156.3,28.7c-3.9,0-5.9-2.2-5.9-6.6c0-4.3,2-6.5,5.9-6.5c3.8,0,5.7,2.2,5.7,6.5
			C162.1,26.5,160.1,28.7,156.3,28.7z"/>
		<polygon fill="#222222" points="182.4,12.7 182.4,26.2 171.9,12.7 168.4,12.7 168.4,31.7 171.7,31.7 171.7,17.8 182.3,31.7 
			185.8,31.7 185.8,12.7 		"/>
	</g>
</g>
</svg>
